<svg viewBox="0 0 543 101" xmlns="http://www.w3.org/2000/svg">
  <title>
    Read "I Am Definitely a Millennial"
  </title>
  <g fill="none" fill-rule="evenodd">
    <path fill="#CD5C5C" d="M0 0h130.233v64.615H0z"/>
    <path fill="#CD5C5C" d="M59 25h130.233v64.615H59z"/>
    <path fill="#CD5C5C" d="M86 36h130.233v64.615H86z"/>
    <path fill="#CD5C5C" d="M26 12h130.233v64.615H26z"/>
    <path d="M271.621 49.648v-.539h7.266v.54h-.34c-.781 0-1.293.064-1.535.193s-.405.369-.487.72c-.082.352-.123 1.188-.123 2.508v7.793c0 1.25.03 2.069.088 2.455.059.387.215.674.469.862.254.187.74.28 1.459.28h.469V65h-7.266v-.54h.469c.68 0 1.15-.085 1.412-.257s.428-.44.498-.803c.07-.363.105-1.209.105-2.537V53.07c0-1.265-.035-2.082-.105-2.449-.07-.367-.227-.621-.469-.762-.242-.14-.765-.21-1.57-.21h-.34zm24.234 9.493h-6.035l-.41 1.007c-.61 1.461-.914 2.414-.914 2.86 0 .476.162.838.486 1.084.325.246.74.369 1.248.369V65h-4.722v-.54c.703-.108 1.226-.356 1.57-.743.344-.387.758-1.201 1.242-2.444.04-.117.227-.57.563-1.359l4.617-11.027h.457l5.309 12.62.726 1.665c.164.375.385.67.662.885.278.214.694.35 1.248.404V65h-6.246v-.54c.766 0 1.283-.056 1.553-.169.27-.113.404-.338.404-.674 0-.172-.18-.683-.539-1.535l-1.219-2.941zm-.199-.528l-2.812-6.773-2.801 6.773h5.613zm9.457-3.597h.117c.227.523.34 1.195.34 2.015.524-.672 1.088-1.176 1.694-1.511a3.958 3.958 0 0 1 1.95-.504c.79 0 1.43.18 1.923.539.492.36.836.898 1.031 1.617.594-.719 1.203-1.258 1.828-1.617.625-.36 1.262-.54 1.91-.54.742 0 1.371.172 1.887.516.516.344.828.735.937 1.172.11.438.165 1.145.165 2.121v2.883c0 1.117.021 1.797.064 2.04a.736.736 0 0 0 .375.538c.207.117.592.176 1.154.176V65h-4.793v-.54c.508 0 .866-.056 1.073-.169a.727.727 0 0 0 .38-.516c.047-.23.07-.92.07-2.068v-3.2c0-.648-.036-1.136-.11-1.464-.075-.328-.268-.61-.58-.844-.313-.234-.72-.351-1.22-.351-.507 0-1.017.172-1.529.515-.511.344-1.025.864-1.54 1.559v3.785c0 1.023.013 1.666.04 1.928a.835.835 0 0 0 .328.61c.192.144.534.216 1.026.216V65h-4.64v-.54c.523 0 .888-.054 1.095-.163a.725.725 0 0 0 .387-.504c.05-.227.076-.922.076-2.086v-2.66c0-.844-.033-1.455-.1-1.834-.066-.379-.267-.703-.603-.973-.336-.27-.754-.404-1.254-.404-.485 0-.979.156-1.483.469-.504.312-1.017.78-1.54 1.406v3.996c0 1.055.015 1.711.046 1.969a.775.775 0 0 0 .352.586c.203.133.566.199 1.09.199V65h-4.7v-.54c.516 0 .877-.056 1.084-.169a.725.725 0 0 0 .381-.51c.047-.226.07-.918.07-2.074v-2.871c0-1.094-.017-1.764-.052-2.01a.74.74 0 0 0-.363-.556c-.208-.125-.58-.188-1.12-.188v-.539c1.11-.11 2.028-.285 2.754-.527zm22.453-5.778l2.614-.129c2.18-.109 3.648-.164 4.406-.164 2.36 0 4.2.36 5.52 1.078 1.32.72 2.302 1.694 2.947 2.924.644 1.23.967 2.65.967 4.26 0 1.164-.176 2.229-.528 3.193-.351.965-.834 1.766-1.447 2.403a6.205 6.205 0 0 1-2.133 1.453c-.808.332-1.576.539-2.303.621-.726.082-1.75.123-3.07.123h-7.043v-.54h.656c.68 0 1.15-.085 1.412-.257s.43-.44.504-.803c.075-.363.112-1.209.112-2.537V53.2c0-1.265-.037-2.084-.112-2.455-.074-.371-.23-.625-.468-.762-.239-.136-.76-.205-1.565-.205h-.469v-.539zm4.899.328v10.618c0 1.57.03 2.582.088 3.035.058.453.234.771.527.955.293.183.912.275 1.858.275 1.382 0 2.519-.19 3.41-.568.89-.379 1.634-1.125 2.232-2.238.598-1.114.897-2.534.897-4.26 0-1.344-.174-2.543-.522-3.598-.348-1.055-.846-1.912-1.494-2.572-.649-.66-1.367-1.11-2.156-1.348-.79-.238-1.801-.357-3.035-.357-.594 0-1.196.02-1.805.058zm22.37 9.082h-6.69c-.032.461-.047.805-.047 1.032 0 1.687.263 2.955.79 3.802.528.848 1.315 1.272 2.362 1.272 1.422 0 2.43-.637 3.023-1.91h.563c-.25.797-.746 1.42-1.488 1.869-.743.45-1.551.674-2.426.674-.813 0-1.58-.205-2.303-.616a4.916 4.916 0 0 1-1.775-1.74c-.461-.75-.692-1.66-.692-2.73 0-1.516.446-2.776 1.336-3.78.89-1.003 2.004-1.505 3.34-1.505 1.258 0 2.23.382 2.918 1.148.688.766 1.05 1.594 1.09 2.484zm-2.05-.468c.024-.18.035-.34.035-.48 0-.688-.2-1.221-.603-1.6-.403-.38-.897-.569-1.483-.569-1.422 0-2.27.883-2.543 2.649h4.594zm3.094-2.239v-.539h1.887v-.914c0-1.25.164-2.265.492-3.047.328-.78.896-1.402 1.705-1.863.808-.46 1.724-.691 2.748-.691 1.008 0 1.812.172 2.414.515.602.344.902.727.902 1.149 0 .21-.07.39-.21.539a.683.683 0 0 1-.516.222c-.39 0-.774-.3-1.149-.902-.43-.672-1.03-1.008-1.804-1.008-.711 0-1.32.223-1.828.668-.508.446-.815 1.03-.92 1.752-.106.723-.159 1.65-.159 2.783v.797h2.977c1.61 0 2.77-.129 3.48-.386h.282v6.691c0 1.11.02 1.785.058 2.027.04.243.162.424.37.545.206.121.587.182 1.142.182V65h-4.898v-.54c.562 0 .949-.052 1.16-.157a.721.721 0 0 0 .398-.492c.055-.223.082-.924.082-2.104v-3.492c0-.836-.031-1.373-.094-1.611a.749.749 0 0 0-.404-.51c-.207-.102-.635-.153-1.283-.153h-3.27v5.766c0 1.125.022 1.807.065 2.045a.733.733 0 0 0 .375.533c.207.117.596.176 1.166.176V65h-4.875v-.54c.539 0 .912-.054 1.119-.163a.742.742 0 0 0 .393-.498c.054-.223.082-.92.082-2.092v-5.766h-1.887zm15.422-.925h.316c.18.484.281 1.144.305 1.98.562-.664 1.152-1.16 1.77-1.488a4.065 4.065 0 0 1 1.933-.492c.766 0 1.393.16 1.88.48.49.32.804.713.944 1.178.14.465.211 1.142.211 2.033v3c0 1.11.02 1.785.059 2.027.039.243.162.424.369.545.207.121.588.182 1.142.182V65h-4.91v-.54h.223c.562 0 .93-.081 1.102-.245a.91.91 0 0 0 .293-.574c.023-.22.035-.864.035-1.934v-3.094c0-.758-.037-1.299-.112-1.623-.074-.324-.273-.611-.597-.861-.325-.25-.737-.375-1.237-.375-.57 0-1.115.17-1.634.51-.52.34-1.01.85-1.471 1.529v3.914c0 1.11.021 1.785.064 2.027a.754.754 0 0 0 .375.545c.207.121.592.182 1.155.182V65h-4.852v-.54c.54 0 .914-.054 1.125-.163a.72.72 0 0 0 .393-.498c.05-.223.076-.92.076-2.092v-2.86c0-1.117-.022-1.794-.065-2.033a.75.75 0 0 0-.375-.539c-.207-.12-.591-.181-1.154-.181v-.54a15.06 15.06 0 0 0 2.637-.538zm11.05-4.899c0-.336.12-.625.358-.867s.525-.363.861-.363c.336 0 .621.12.856.363.234.242.351.531.351.867 0 .344-.117.637-.351.88-.235.241-.52.362-.856.362-.336 0-.623-.12-.861-.363a1.207 1.207 0 0 1-.357-.879zm2.262 4.899v6.691c0 1.023.016 1.668.047 1.934a.832.832 0 0 0 .34.609c.195.14.543.21 1.043.21h.246V65h-5.168v-.54h.399c.554 0 .916-.08 1.084-.24a.93.93 0 0 0 .292-.574c.028-.222.041-.869.041-1.939v-2.906c0-1.125-.052-1.813-.158-2.063-.105-.25-.246-.406-.422-.468-.175-.063-.482-.094-.92-.094h-.316v-.54c1.39-.14 2.469-.347 3.234-.62h.258zm8.719.925h-2.894v5.801c0 .89.039 1.49.117 1.799.078.309.244.557.498.744.254.188.525.281.814.281.563 0 1.051-.32 1.465-.96l.375.222c-.242.516-.6.904-1.072 1.166a2.935 2.935 0 0 1-1.436.393 2.342 2.342 0 0 1-1.482-.498c-.426-.332-.692-.721-.797-1.166-.106-.446-.158-1.227-.158-2.344V55.94h-1.395v-.539c.64-.015 1.215-.285 1.723-.808.508-.524.832-1.258.973-2.203h.375v3.011h2.894v.54zm9.996 2.707h-6.691c-.032.461-.047.805-.047 1.032 0 1.687.264 2.955.79 3.802.528.848 1.315 1.272 2.362 1.272 1.422 0 2.43-.637 3.024-1.91h.562c-.25.797-.746 1.42-1.488 1.869-.742.45-1.55.674-2.426.674-.812 0-1.58-.205-2.303-.616a4.916 4.916 0 0 1-1.775-1.74c-.461-.75-.691-1.66-.691-2.73 0-1.516.445-2.776 1.335-3.78.891-1.003 2.004-1.505 3.34-1.505 1.258 0 2.23.382 2.918 1.148.688.766 1.051 1.594 1.09 2.484zm-2.05-.468c.023-.18.034-.34.034-.48 0-.688-.2-1.221-.603-1.6-.402-.38-.896-.569-1.482-.569-1.422 0-2.27.883-2.543 2.649h4.593zm6.644-9.293v12.82c0 1.023.014 1.668.04 1.934a.814.814 0 0 0 .335.609c.195.14.543.21 1.043.21h.281V65h-5.133v-.54h.328c.47 0 .803-.064 1.002-.192.2-.13.319-.311.358-.545.039-.235.058-.907.058-2.016v-9.492c0-1.008-.09-1.643-.27-1.904-.179-.262-.616-.393-1.312-.393v-.54c.477 0 1.037-.054 1.682-.163.645-.11 1.088-.219 1.33-.328h.258zm8.297 14.297l2.226-5.332c.32-.782.48-1.215.48-1.301 0-.39-.433-.594-1.3-.61v-.539H421v.54c-.523.023-.906.162-1.148.415-.243.254-.543.815-.903 1.682l-4.277 10.324c-.406.985-.766 1.655-1.078 2.01-.313.356-.656.533-1.031.533-.508 0-.762-.23-.762-.691 0-.531.406-.98 1.219-1.348.476-.21.794-.39.955-.539.16-.148.318-.418.474-.808l.914-2.286-3.61-7.734c-.32-.68-.585-1.11-.796-1.29-.21-.179-.57-.269-1.078-.269v-.539h4.406v.54c-.773.023-1.16.183-1.16.48 0 .117.152.5.457 1.148l2.637 5.614zm21.351.058h.434c-.07 1.336-.727 2.004-1.969 2.004-.531 0-.951-.14-1.26-.422-.308-.281-.51-.699-.603-1.254-.781.555-1.494.973-2.139 1.254-.644.281-1.22.422-1.728.422-.649 0-1.207-.187-1.676-.562-.469-.375-.703-.871-.703-1.489 0-.804.392-1.507 1.178-2.11.785-.6 1.869-1.187 3.251-1.757l1.817-.738v-.469c0-.664-.043-1.144-.129-1.441-.086-.297-.309-.563-.668-.797-.36-.235-.832-.352-1.418-.352-1.172 0-1.824.39-1.957 1.172-.125.797-.453 1.195-.984 1.195-.477 0-.715-.226-.715-.68 0-.445.316-.923.949-1.435s1.617-.767 2.953-.767c.992 0 1.762.156 2.309.468.547.313.908.668 1.084 1.067.175.398.263 1.008.263 1.828v3.879c0 .906.047 1.488.141 1.746.094.258.297.387.61.387.515 0 .835-.383.96-1.149zm-3.398-4.101l-1.277.515c-2.016.82-3.024 1.852-3.024 3.094 0 .492.129.889.387 1.19.258.3.594.45 1.008.45.367 0 .793-.12 1.277-.363.484-.242 1.027-.605 1.629-1.09v-3.796zm21.21 3.117l5.79-13.149h4.875v.54h-.586c-.781 0-1.293.064-1.535.193s-.405.369-.487.72c-.082.352-.123 1.188-.123 2.508v7.793c0 1.25.032 2.069.094 2.455.063.387.22.674.475.862.254.187.74.28 1.459.28h.703V65h-7.594v-.54h.563c.672 0 1.138-.085 1.4-.257s.43-.44.504-.803c.074-.363.111-1.209.111-2.537V50.75L454.738 65h-.55l-6.34-14.25v9.305c0 1.273.039 2.14.117 2.601.078.461.32.865.726 1.213.407.348.977.545 1.711.592V65h-5.683v-.54c.68-.038 1.232-.224 1.658-.556.426-.332.685-.74.78-1.224.093-.485.14-1.383.14-2.696V53.07c0-1.265-.037-2.082-.111-2.449-.075-.367-.23-.621-.47-.762-.237-.14-.759-.21-1.564-.21h-.433v-.54h4.84l5.824 13.149zm12.727-12.14c0-.337.12-.626.358-.868s.525-.363.861-.363c.336 0 .621.12.856.363.234.242.351.531.351.867 0 .344-.117.637-.351.88-.235.241-.52.362-.856.362-.336 0-.623-.12-.861-.363a1.207 1.207 0 0 1-.358-.879zm2.262 4.898v6.691c0 1.023.016 1.668.047 1.934a.832.832 0 0 0 .34.609c.195.14.543.21 1.043.21h.246V65h-5.168v-.54h.398c.555 0 .916-.08 1.084-.24a.93.93 0 0 0 .293-.574c.028-.222.041-.869.041-1.939v-2.906c0-1.125-.052-1.813-.158-2.063-.105-.25-.246-.406-.422-.468-.176-.063-.482-.094-.92-.094h-.316v-.54c1.39-.14 2.469-.347 3.234-.62h.258zm5.813-6.13v12.821c0 1.023.013 1.668.04 1.934a.814.814 0 0 0 .335.609c.195.14.543.21 1.043.21h.28V65h-5.132v-.54h.328c.469 0 .803-.064 1.002-.192.2-.13.318-.311.358-.545.039-.235.058-.907.058-2.016v-9.492c0-1.008-.09-1.643-.27-1.904-.18-.262-.617-.393-1.312-.393v-.54c.477 0 1.037-.054 1.682-.163.644-.11 1.088-.219 1.33-.328h.258zm5.753 0v12.821c0 1.023.014 1.668.042 1.934a.814.814 0 0 0 .334.609c.195.14.542.21 1.042.21h.282V65h-5.133v-.54h.328c.469 0 .803-.064 1.002-.192.2-.13.318-.311.357-.545.04-.235.059-.907.059-2.016v-9.492c0-1.008-.09-1.643-.27-1.904-.18-.262-.617-.393-1.312-.393v-.54c.477 0 1.037-.054 1.682-.163.644-.11 1.087-.219 1.33-.328h.257zm11.66 9.762h-6.69c-.032.461-.048.805-.048 1.032 0 1.687.264 2.955.791 3.802.528.848 1.315 1.272 2.362 1.272 1.422 0 2.43-.637 3.023-1.91h.563c-.25.797-.746 1.42-1.489 1.869-.742.45-1.55.674-2.425.674-.813 0-1.58-.205-2.303-.616a4.916 4.916 0 0 1-1.776-1.74c-.46-.75-.69-1.66-.69-2.73 0-1.516.444-2.776 1.335-3.78.89-1.003 2.004-1.505 3.34-1.505 1.258 0 2.23.382 2.918 1.148.687.766 1.05 1.594 1.09 2.484zm-2.05-.468c.023-.18.035-.34.035-.48 0-.688-.201-1.221-.603-1.6-.403-.38-.897-.569-1.483-.569-1.422 0-2.27.883-2.543 2.649h4.594zm6.27-3.164h.316c.18.484.281 1.144.305 1.98.562-.664 1.152-1.16 1.769-1.488a4.065 4.065 0 0 1 1.934-.492c.765 0 1.392.16 1.88.48.489.32.803.713.944 1.178.14.465.21 1.142.21 2.033v3c0 1.11.02 1.785.06 2.027.038.243.161.424.369.545.207.121.587.182 1.142.182V65h-4.91v-.54h.223c.562 0 .93-.081 1.101-.245a.91.91 0 0 0 .293-.574c.024-.22.035-.864.035-1.934v-3.094c0-.758-.037-1.299-.111-1.623-.074-.324-.273-.611-.598-.861-.324-.25-.736-.375-1.236-.375-.57 0-1.115.17-1.635.51-.52.34-1.01.85-1.47 1.529v3.914c0 1.11.021 1.785.064 2.027a.754.754 0 0 0 .375.545c.207.121.592.182 1.154.182V65h-4.851v-.54c.539 0 .914-.054 1.125-.163a.72.72 0 0 0 .392-.498c.051-.223.076-.92.076-2.092v-2.86c0-1.117-.021-1.794-.064-2.033a.75.75 0 0 0-.375-.539c-.207-.12-.592-.181-1.154-.181v-.54a15.06 15.06 0 0 0 2.636-.538zm12.75 0h.316c.18.484.281 1.144.305 1.98.562-.664 1.152-1.16 1.769-1.488a4.065 4.065 0 0 1 1.934-.492c.765 0 1.392.16 1.88.48.489.32.803.713.944 1.178.14.465.21 1.142.21 2.033v3c0 1.11.02 1.785.06 2.027.038.243.161.424.369.545.207.121.587.182 1.142.182V65h-4.91v-.54h.223c.562 0 .93-.081 1.101-.245a.91.91 0 0 0 .293-.574c.024-.22.035-.864.035-1.934v-3.094c0-.758-.037-1.299-.111-1.623-.074-.324-.273-.611-.598-.861-.324-.25-.736-.375-1.236-.375-.57 0-1.115.17-1.635.51-.52.34-1.01.85-1.47 1.529v3.914c0 1.11.021 1.785.064 2.027a.754.754 0 0 0 .375.545c.207.121.592.182 1.154.182V65h-4.851v-.54c.539 0 .914-.054 1.125-.163a.72.72 0 0 0 .392-.498c.051-.223.076-.92.076-2.092v-2.86c0-1.117-.021-1.794-.064-2.033a.75.75 0 0 0-.375-.539c-.207-.12-.592-.181-1.154-.181v-.54a15.06 15.06 0 0 0 2.636-.538zm11.05-4.899c0-.336.12-.625.358-.867s.525-.363.86-.363c.337 0 .622.12.856.363.235.242.352.531.352.867 0 .344-.117.637-.352.88-.234.241-.52.362-.855.362-.336 0-.623-.12-.861-.363a1.207 1.207 0 0 1-.358-.879zm2.262 4.899v6.691c0 1.023.016 1.668.047 1.934a.832.832 0 0 0 .34.609c.195.14.543.21 1.043.21h.246V65h-5.168v-.54h.398c.555 0 .916-.08 1.084-.24a.93.93 0 0 0 .293-.574c.027-.222.041-.869.041-1.939v-2.906c0-1.125-.053-1.813-.158-2.063-.106-.25-.246-.406-.422-.468-.176-.063-.482-.094-.92-.094h-.316v-.54c1.39-.14 2.468-.347 3.234-.62h.258zm12.703 8.226h.434c-.07 1.336-.727 2.004-1.97 2.004-.53 0-.95-.14-1.259-.422-.308-.281-.51-.699-.603-1.254-.782.555-1.495.973-2.14 1.254-.644.281-1.22.422-1.728.422-.648 0-1.207-.187-1.675-.562-.47-.375-.703-.871-.703-1.489 0-.804.392-1.507 1.177-2.11.785-.6 1.87-1.187 3.252-1.757l1.817-.738v-.469c0-.664-.043-1.144-.13-1.441-.085-.297-.308-.563-.667-.797-.36-.235-.832-.352-1.418-.352-1.172 0-1.824.39-1.957 1.172-.125.797-.453 1.195-.985 1.195-.476 0-.715-.226-.715-.68 0-.445.317-.923.95-1.435s1.617-.767 2.953-.767c.992 0 1.762.156 2.308.468.547.313.909.668 1.084 1.067.176.398.264 1.008.264 1.828v3.879c0 .906.047 1.488.14 1.746.094.258.298.387.61.387.516 0 .836-.383.961-1.149zm-3.398-4.101l-1.278.515c-2.015.82-3.023 1.852-3.023 3.094 0 .492.129.889.387 1.19.257.3.593.45 1.007.45.368 0 .793-.12 1.278-.363.484-.242 1.027-.605 1.629-1.09v-3.796zm7.757-10.254v12.82c0 1.023.014 1.668.041 1.934a.814.814 0 0 0 .334.609c.196.14.543.21 1.043.21h.282V65h-5.133v-.54h.328c.469 0 .803-.064 1.002-.192.2-.13.318-.311.357-.545.04-.235.059-.907.059-2.016v-9.492c0-1.008-.09-1.643-.27-1.904-.18-.262-.617-.393-1.312-.393v-.54c.476 0 1.037-.054 1.682-.163.644-.11 1.087-.219 1.33-.328h.257z" fill="#262626"/>
  </g>
</svg>
