<svg viewBox="0 0 285 169" xmlns="http://www.w3.org/2000/svg">
  <title>
    Read "Pianos"
  </title>
  <g fill="#262626" fill-rule="evenodd">
    <path d="M23.68 19.715V11.2c0-6.24-4.225-9.49-9.425-9.49H.085V45h10.01V29.27h4.16c5.2 0 9.425-3.315 9.425-9.555zm-9.36.26c0 1.43-.65 2.08-1.755 2.08h-2.47V9.575h2.47c1.105 0 1.755.585 1.755 2.08v8.32zM64.023 45V1.71h-10.01V45h10.01zm55.684 0l-7.41-43.29h-11.57L93.187 45h9.035l.91-6.5h5.915l.65 6.5h10.01zm-11.57-13.91h-3.9l2.21-15.73 1.69 15.73zM174.675 45V1.71H165.9v22.295l-2.34-6.175-5.72-16.12H149V45h8.84V22.965l2.47 6.11L166.42 45h8.255zm55.878-10.335v-22.62c0-6.695-5.46-11.245-12.48-11.245-7.085 0-12.545 4.55-12.545 11.245v22.62c0 6.76 5.46 11.31 12.545 11.31 7.02 0 12.48-4.55 12.48-11.31zm-10.205.585c0 1.365-1.04 2.145-2.275 2.145-1.235 0-2.34-.78-2.34-2.145V11.46c0-1.365 1.105-2.145 2.34-2.145 1.235 0 2.275.78 2.275 2.145v23.79zm64.394-1.43c0-6.11-4.42-10.205-8.45-13.78-3.315-3.12-5.915-4.875-5.915-8.32 0-1.885 1.3-2.86 2.665-2.86 1.43 0 2.47 1.04 2.47 2.795v3.12h8.71V11.98c0-6.37-4.55-11.18-11.18-11.18-8.19 0-12.285 5.85-12.285 12.155 0 5.915 4.615 10.205 8.515 13.455 3.25 2.99 5.85 5.265 5.85 8.32 0 2.08-.91 3.25-2.86 3.25-1.95 0-3.055-1.365-3.055-3.25v-3.12h-8.71v3.12c0 7.085 4.615 11.245 12.22 11.245 7.41 0 12.025-5.33 12.025-12.155z" opacity=".1"/>
    <path d="M23.68 60.715V52.2c0-6.24-4.225-9.49-9.425-9.49H.085V86h10.01V70.27h4.16c5.2 0 9.425-3.315 9.425-9.555zm-9.36.26c0 1.43-.65 2.08-1.755 2.08h-2.47v-12.48h2.47c1.105 0 1.755.585 1.755 2.08v8.32zM64.023 86V42.71h-10.01V86h10.01zm55.684 0l-7.41-43.29h-11.57L93.187 86h9.035l.91-6.5h5.915l.65 6.5h10.01zm-11.57-13.91h-3.9l2.21-15.73 1.69 15.73zM174.675 86V42.71H165.9v22.295l-2.34-6.175-5.72-16.12H149V86h8.84V63.965l2.47 6.11L166.42 86h8.255zm55.878-10.335v-22.62c0-6.695-5.46-11.245-12.48-11.245-7.085 0-12.545 4.55-12.545 11.245v22.62c0 6.76 5.46 11.31 12.545 11.31 7.02 0 12.48-4.55 12.48-11.31zm-10.205.585c0 1.365-1.04 2.145-2.275 2.145-1.235 0-2.34-.78-2.34-2.145V52.46c0-1.365 1.105-2.145 2.34-2.145 1.235 0 2.275.78 2.275 2.145v23.79zm64.394-1.43c0-6.11-4.42-10.205-8.45-13.78-3.315-3.12-5.915-4.875-5.915-8.32 0-1.885 1.3-2.86 2.665-2.86 1.43 0 2.47 1.04 2.47 2.795v3.12h8.71V52.98c0-6.37-4.55-11.18-11.18-11.18-8.19 0-12.285 5.85-12.285 12.155 0 5.915 4.615 10.205 8.515 13.455 3.25 2.99 5.85 5.265 5.85 8.32 0 2.08-.91 3.25-2.86 3.25-1.95 0-3.055-1.365-3.055-3.25v-3.12h-8.71v3.12c0 7.085 4.615 11.245 12.22 11.245 7.41 0 12.025-5.33 12.025-12.155z" opacity=".3"/>
    <path d="M23.68 101.715V93.2c0-6.24-4.225-9.49-9.425-9.49H.085V127h10.01v-15.73h4.16c5.2 0 9.425-3.315 9.425-9.555zm-9.36.26c0 1.43-.65 2.08-1.755 2.08h-2.47v-12.48h2.47c1.105 0 1.755.585 1.755 2.08v8.32zM64.023 127V83.71h-10.01V127h10.01zm55.684 0l-7.41-43.29h-11.57L93.187 127h9.035l.91-6.5h5.915l.65 6.5h10.01zm-11.57-13.91h-3.9l2.21-15.73 1.69 15.73zM174.675 127V83.71H165.9v22.295l-2.34-6.175-5.72-16.12H149V127h8.84v-22.035l2.47 6.11L166.42 127h8.255zm55.878-10.335v-22.62c0-6.695-5.46-11.245-12.48-11.245-7.085 0-12.545 4.55-12.545 11.245v22.62c0 6.76 5.46 11.31 12.545 11.31 7.02 0 12.48-4.55 12.48-11.31zm-10.205.585c0 1.365-1.04 2.145-2.275 2.145-1.235 0-2.34-.78-2.34-2.145V93.46c0-1.365 1.105-2.145 2.34-2.145 1.235 0 2.275.78 2.275 2.145v23.79zm64.394-1.43c0-6.11-4.42-10.205-8.45-13.78-3.315-3.12-5.915-4.875-5.915-8.32 0-1.885 1.3-2.86 2.665-2.86 1.43 0 2.47 1.04 2.47 2.795v3.12h8.71V93.98c0-6.37-4.55-11.18-11.18-11.18-8.19 0-12.285 5.85-12.285 12.155 0 5.915 4.615 10.205 8.515 13.455 3.25 2.99 5.85 5.265 5.85 8.32 0 2.08-.91 3.25-2.86 3.25-1.95 0-3.055-1.365-3.055-3.25v-3.12h-8.71v3.12c0 7.085 4.615 11.245 12.22 11.245 7.41 0 12.025-5.33 12.025-12.155z" opacity=".5"/>
    <path d="M23.68 142.715V134.2c0-6.24-4.225-9.49-9.425-9.49H.085V168h10.01v-15.73h4.16c5.2 0 9.425-3.315 9.425-9.555zm-9.36.26c0 1.43-.65 2.08-1.755 2.08h-2.47v-12.48h2.47c1.105 0 1.755.585 1.755 2.08v8.32zM64.023 168v-43.29h-10.01V168h10.01zm55.684 0l-7.41-43.29h-11.57L93.187 168h9.035l.91-6.5h5.915l.65 6.5h10.01zm-11.57-13.91h-3.9l2.21-15.73 1.69 15.73zM174.675 168v-43.29H165.9v22.295l-2.34-6.175-5.72-16.12H149V168h8.84v-22.035l2.47 6.11L166.42 168h8.255zm55.878-10.335v-22.62c0-6.695-5.46-11.245-12.48-11.245-7.085 0-12.545 4.55-12.545 11.245v22.62c0 6.76 5.46 11.31 12.545 11.31 7.02 0 12.48-4.55 12.48-11.31zm-10.205.585c0 1.365-1.04 2.145-2.275 2.145-1.235 0-2.34-.78-2.34-2.145v-23.79c0-1.365 1.105-2.145 2.34-2.145 1.235 0 2.275.78 2.275 2.145v23.79zm64.394-1.43c0-6.11-4.42-10.205-8.45-13.78-3.315-3.12-5.915-4.875-5.915-8.32 0-1.885 1.3-2.86 2.665-2.86 1.43 0 2.47 1.04 2.47 2.795v3.12h8.71v-2.795c0-6.37-4.55-11.18-11.18-11.18-8.19 0-12.285 5.85-12.285 12.155 0 5.915 4.615 10.205 8.515 13.455 3.25 2.99 5.85 5.265 5.85 8.32 0 2.08-.91 3.25-2.86 3.25-1.95 0-3.055-1.365-3.055-3.25v-3.12h-8.71v3.12c0 7.085 4.615 11.245 12.22 11.245 7.41 0 12.025-5.33 12.025-12.155z"/>
  </g>
</svg>
