<svg viewBox="0 0 1146 191" xmlns="http://www.w3.org/2000/svg">
  <title>
    Read "San Francisco"
  </title>
  <path d="M669.05 6.75c5.033 3.967 7.55 9.717 7.55 17.25h-21c0-2.6-.75-4.6-2.25-6-1.5-1.4-3.683-2.1-6.55-2.1-2.467 0-4.4.5-5.8 1.5-1.4 1-2.1 2.333-2.1 4 0 1.333.4 2.417 1.2 3.25.8.833 2.067 1.55 3.8 2.15 1.733.6 4.367 1.333 7.9 2.2 5.667 1.4 10.317 2.883 13.95 4.45 3.633 1.567 6.6 3.85 8.9 6.85 2.3 3 3.45 6.967 3.45 11.9 0 4.733-1.217 8.817-3.65 12.25s-5.917 6.083-10.45 7.95c-4.533 1.867-9.933 2.8-16.2 2.8-9.667 0-17.2-2.167-22.6-6.5-5.4-4.333-8.1-10.4-8.1-18.2h21.6c0 6.067 3.267 9.1 9.8 9.1 2.667 0 4.75-.55 6.25-1.65 1.5-1.1 2.25-2.583 2.25-4.45 0-1.467-.4-2.617-1.2-3.45-.8-.833-2-1.55-3.6-2.15-1.6-.6-4.167-1.333-7.7-2.2-5.867-1.6-10.533-3.133-14-4.6-3.467-1.467-6.333-3.633-8.6-6.5-2.267-2.867-3.4-6.7-3.4-11.5 0-4.467 1.167-8.383 3.5-11.75 2.333-3.367 5.7-5.967 10.1-7.8C636.5 1.717 641.733.8 647.8.8c9.133 0 16.217 1.983 21.25 5.95zM727.8 26.6c4 3.6 6 8.833 6 15.7v16.5c0 6.267.533 11.2 1.6 14.8h-17.3c-.533-1.933-.8-4.067-.8-6.4h-.2c-4 5.2-9.5 7.8-16.5 7.8-5.4 0-9.7-1.5-12.9-4.5-3.2-3-4.8-6.8-4.8-11.4 0-4.6 1.6-8.233 4.8-10.9 3.2-2.667 8.5-4.567 15.9-5.7 3.6-.6 7.5-1.033 11.7-1.3v-1.8c0-4.667-2-7-6-7-1.867 0-3.317.55-4.35 1.65-1.033 1.1-1.583 2.717-1.65 4.85H685c.333-5.133 2.5-9.367 6.5-12.7 4-3.333 10-5 18-5 8.2 0 14.3 1.8 18.3 5.4zm-20.3 25.3c-2.067.467-3.55 1.167-4.45 2.1-.9.933-1.35 2.2-1.35 3.8 0 1.6.483 2.883 1.45 3.85.967.967 2.35 1.45 4.15 1.45 1.133 0 2.217-.2 3.25-.6 1.033-.4 1.883-1 2.55-1.8a7.21 7.21 0 0 0 1.75-3.2c.3-1.2.45-2.8.45-4.8v-1.9c-3.267.333-5.867.7-7.8 1.1zm82.95-25.1c3.3 3.6 4.95 8.767 4.95 15.5v31.3h-19.2V44.7c0-5.667-2-8.5-6-8.5-4.6 0-6.9 3.967-6.9 11.9v25.5h-19.2V22.8h17.8v5.8h.2c1.733-2.267 3.833-4.033 6.3-5.3 2.467-1.267 5.267-1.9 8.4-1.9 5.8 0 10.35 1.8 13.65 5.4zM641.9 134.4v13.4h28.6v16.9h-28.6v23.9h-20v-71.2h50.6v17h-30.6zm76 3.2V154c-1.733-.4-3.667-.6-5.8-.6-4.133 0-7.3 1.267-9.5 3.8s-3.3 6.167-3.3 10.9v20.5h-19.2v-50.8h17.8v6.9h.2c1.8-2.667 3.917-4.617 6.35-5.85 2.433-1.233 5.25-1.85 8.45-1.85 1.867 0 3.533.2 5 .6zm47.2 4c4 3.6 6 8.833 6 15.7v16.5c0 6.267.533 11.2 1.6 14.8h-17.3c-.533-1.933-.8-4.067-.8-6.4h-.2c-4 5.2-9.5 7.8-16.5 7.8-5.4 0-9.7-1.5-12.9-4.5-3.2-3-4.8-6.8-4.8-11.4 0-4.6 1.6-8.233 4.8-10.9 3.2-2.667 8.5-4.567 15.9-5.7 3.6-.6 7.5-1.033 11.7-1.3v-1.8c0-4.667-2-7-6-7-1.867 0-3.317.55-4.35 1.65-1.033 1.1-1.583 2.717-1.65 4.85h-18.3c.333-5.133 2.5-9.367 6.5-12.7 4-3.333 10-5 18-5 8.2 0 14.3 1.8 18.3 5.4zm-20.3 25.3c-2.067.467-3.55 1.167-4.45 2.1-.9.933-1.35 2.2-1.35 3.8 0 1.6.483 2.883 1.45 3.85.967.967 2.35 1.45 4.15 1.45 1.133 0 2.217-.2 3.25-.6 1.033-.4 1.883-1 2.55-1.8a7.21 7.21 0 0 0 1.75-3.2c.3-1.2.45-2.8.45-4.8v-1.9c-3.267.333-5.867.7-7.8 1.1zm82.95-25.1c3.3 3.6 4.95 8.767 4.95 15.5v31.3h-19.2v-28.9c0-5.667-2-8.5-6-8.5-4.6 0-6.9 3.967-6.9 11.9v25.5h-19.2v-50.8h17.8v5.8h.2c1.733-2.267 3.833-4.033 6.3-5.3 2.467-1.267 5.267-1.9 8.4-1.9 5.8 0 10.35 1.8 13.65 5.4zm58.4.25c4.833 3.9 7.583 9.15 8.25 15.75h-19.9c-.2-2.333-.883-4.133-2.05-5.4-1.167-1.267-2.683-1.9-4.55-1.9-2.4 0-4.267 1.083-5.6 3.25-1.333 2.167-2 5.25-2 9.25 0 4.2.667 7.4 2 9.6 1.333 2.2 3.2 3.3 5.6 3.3 1.933 0 3.5-.717 4.7-2.15 1.2-1.433 1.833-3.45 1.9-6.05h19.9c-.533 7-3.217 12.5-8.05 16.5s-11.083 6-18.75 6c-5.533 0-10.367-1.1-14.5-3.3-4.133-2.2-7.333-5.35-9.6-9.45-2.267-4.1-3.4-8.917-3.4-14.45 0-5.4 1.117-10.117 3.35-14.15 2.233-4.033 5.433-7.15 9.6-9.35 4.167-2.2 9.017-3.3 14.55-3.3 7.533 0 13.717 1.95 18.55 5.85zm15.75 46.55v-50.8h19.2v50.8h-19.2zm0-57.1v-14.1h19.2v14.1h-19.2zm69.8 8.9c4.133 2.8 6.2 7 6.2 12.6h-18.2c0-3.733-1.9-5.6-5.7-5.6-3.133 0-4.7 1.133-4.7 3.4 0 .867.267 1.55.8 2.05.533.5 1.467 1 2.8 1.5 1.333.5 3.433 1.117 6.3 1.85 4.267 1.133 7.8 2.283 10.6 3.45 2.8 1.167 5.15 2.883 7.05 5.15 1.9 2.267 2.85 5.2 2.85 8.8 0 5.067-2.167 9.1-6.5 12.1s-10.4 4.5-18.2 4.5c-17.267 0-25.9-6.033-25.9-18.1h19.2c0 2.133.55 3.717 1.65 4.75 1.1 1.033 2.817 1.55 5.15 1.55 1.8 0 3.15-.3 4.05-.9.9-.6 1.35-1.467 1.35-2.6 0-1-.35-1.817-1.05-2.45-.7-.633-1.817-1.2-3.35-1.7-1.533-.5-3.967-1.183-7.3-2.05-3.867-1-7.05-2.033-9.55-3.1a15.933 15.933 0 0 1-6.3-4.8c-1.7-2.133-2.55-4.967-2.55-8.5 0-4.867 2.017-8.767 6.05-11.7 4.033-2.933 9.983-4.4 17.85-4.4 7.467 0 13.267 1.4 17.4 4.2zm59.25 1.65c4.833 3.9 7.583 9.15 8.25 15.75h-19.9c-.2-2.333-.883-4.133-2.05-5.4-1.167-1.267-2.683-1.9-4.55-1.9-2.4 0-4.267 1.083-5.6 3.25-1.333 2.167-2 5.25-2 9.25 0 4.2.667 7.4 2 9.6 1.333 2.2 3.2 3.3 5.6 3.3 1.933 0 3.5-.717 4.7-2.15 1.2-1.433 1.833-3.45 1.9-6.05h19.9c-.533 7-3.217 12.5-8.05 16.5s-11.083 6-18.75 6c-5.533 0-10.367-1.1-14.5-3.3-4.133-2.2-7.333-5.35-9.6-9.45-2.267-4.1-3.4-8.917-3.4-14.45 0-5.4 1.117-10.117 3.35-14.15 2.233-4.033 5.433-7.15 9.6-9.35 4.167-2.2 9.017-3.3 14.55-3.3 7.533 0 13.717 1.95 18.55 5.85zm56.25-2.55c4.267 2.2 7.567 5.333 9.9 9.4s3.5 8.833 3.5 14.3c0 5.467-1.167 10.233-3.5 14.3s-5.633 7.2-9.9 9.4-9.267 3.3-15 3.3c-5.733 0-10.733-1.1-15-3.3-4.267-2.2-7.567-5.333-9.9-9.4s-3.5-8.833-3.5-14.3c0-5.467 1.167-10.233 3.5-14.3s5.633-7.2 9.9-9.4 9.267-3.3 15-3.3c5.733 0 10.733 1.1 15 3.3zm-21.05 14.35c-1.433 2.233-2.15 5.35-2.15 9.35s.717 7.117 2.15 9.35c1.433 2.233 3.45 3.35 6.05 3.35 2.6 0 4.617-1.117 6.05-3.35 1.433-2.233 2.15-5.35 2.15-9.35s-.717-7.117-2.15-9.35c-1.433-2.233-3.45-3.35-6.05-3.35-2.6 0-4.617 1.117-6.05 3.35z" fill="#434242"/>
  <path d="M2 96.6h1141.044a2 2 0 1 0 0-4H2a2 2 0 1 0 0 4z" fill="#CD853F"/>
  <path d="M478.996 15.348a2 2 0 0 0-2.73-1.73 2 2 0 0 0-1.632 1.367c-.047.147-.144.44-.288.867-.243.719-.532 1.553-.866 2.494a254.234 254.234 0 0 1-3.374 8.934c-3.683 9.245-7.923 18.488-12.657 27.103-13.32 24.244-27.82 38.709-42.59 38.709-19.12 0-38.744-24.24-57.975-78.164a2 2 0 0 0-2.151-1.31 1.995 1.995 0 0 0-1.467 0 2 2 0 0 0-1.632 1.367c-.047.147-.144.44-.288.867-.243.719-.532 1.553-.866 2.494a254.234 254.234 0 0 1-3.374 8.934c-3.683 9.245-7.923 18.488-12.657 27.103-13.32 24.244-27.82 38.709-42.59 38.709-19.12 0-38.744-24.24-57.975-78.164a2 2 0 0 0-2.151-1.31 1.985 1.985 0 0 0-.264-.083 2 2 0 0 0-2.835 1.155 172.763 172.763 0 0 1-1.155 3.36 254.234 254.234 0 0 1-3.373 8.935c-3.683 9.244-7.923 18.487-12.657 27.103-13.32 24.244-27.82 38.709-42.59 38.709-19.12 0-38.744-24.24-57.975-78.164a2 2 0 0 0-3.882.765 2.035 2.035 0 0 0-.002.081v.886c-.036.149-.088.352-.156.607a63.742 63.742 0 0 1-.697 2.422 98.089 98.089 0 0 1-3.177 8.736c-3.766 9.062-8.902 18.126-15.608 26.58C68.221 78.841 40.368 93.304 2 93.304a2 2 0 1 0 0 4c39.634 0 68.62-15.052 88.496-40.11 6.95-8.763 12.267-18.145 16.168-27.53.114-.274.226-.546.336-.817v83.291a2 2 0 0 0 4 0V26.454c18.562 48.117 37.864 70.343 57.859 70.343 16.738 0 32.12-15.345 46.096-40.783 4.82-8.774 9.128-18.162 12.867-27.549.409-1.025.802-2.028 1.178-3.006v86.68a2 2 0 0 0 4 0v-88.01c18.868 49.931 38.504 72.963 58.859 72.963 16.738 0 32.12-15.345 46.096-40.783 4.82-8.774 9.128-18.162 12.867-27.548.409-1.026.802-2.029 1.178-3.007v86.385a2 2 0 0 0 4 0v-88.01c18.868 49.931 38.504 72.963 58.859 72.963 16.738 0 32.12-15.345 46.096-40.783 4.82-8.774 9.128-18.162 12.867-27.548.409-1.026.802-2.029 1.178-3.007v86.385a2 2 0 0 0 4 0v-84.29c.11.27.222.542.336.816 3.9 9.385 9.217 18.767 16.168 27.53 19.875 25.058 48.862 40.11 88.496 40.11a2 2 0 0 0 0-4c-38.368 0-66.22-14.463-85.362-38.596-6.706-8.453-11.842-17.517-15.608-26.579a98.089 98.089 0 0 1-3.177-8.736 63.742 63.742 0 0 1-.697-2.422c-.07-.265-.124-.474-.16-.624z" fill="#CD853F"/>
</svg>
