<svg viewBox="0 0 310 491" xmlns="http://www.w3.org/2000/svg">
  <title>
    Read "Government"
  </title>
  <path d="M.04 473.376c0-3.418.806-6.453 2.417-9.106 1.611-2.653 3.76-4.675 6.445-6.067 2.686-1.392 5.664-2.087 8.936-2.087 1.66 0 3.222.199 4.687.598 1.465.398 2.755.956 3.87 1.672a17.206 17.206 0 0 1 2.942 2.356 16.309 16.309 0 0 1 2.246 2.844l-5.86 3.198c-.83-1.253-1.936-2.29-3.32-3.112-1.383-.822-2.905-1.233-4.565-1.233-3.044 0-5.554 1.033-7.532 3.1-1.978 2.067-2.966 4.68-2.966 7.837 0 3.158.988 5.774 2.966 7.85 1.978 2.075 4.488 3.112 7.532 3.112 1.383 0 2.714-.256 3.991-.769 1.278-.513 2.291-1.11 3.04-1.794v-4.004h-8.79v-6.201h15.894v12.817c-3.71 4.167-8.422 6.25-14.135 6.25-3.272 0-6.25-.7-8.936-2.1-2.685-1.4-4.834-3.422-6.445-6.066C.846 479.826.04 476.794.04 473.376zm35.889 4.541c0-2.31.5-4.415 1.501-6.31 1.001-1.897 2.482-3.427 4.443-4.59 1.962-1.164 4.228-1.746 6.8-1.746 2.588 0 4.866.582 6.836 1.745 1.969 1.164 3.454 2.694 4.455 4.59s1.502 4 1.502 6.311c0 2.312-.5 4.423-1.502 6.336-1 1.912-2.486 3.454-4.455 4.626-1.97 1.172-4.248 1.758-6.836 1.758-2.572 0-4.838-.586-6.8-1.758-1.96-1.172-3.442-2.714-4.443-4.626-1.001-1.913-1.501-4.024-1.501-6.336zm6.591 0c0 1.986.55 3.658 1.648 5.017 1.099 1.36 2.6 2.039 4.505 2.039 1.92 0 3.434-.675 4.54-2.026 1.107-1.351 1.66-3.028 1.66-5.03 0-1.97-.553-3.625-1.66-4.968-1.106-1.343-2.62-2.014-4.54-2.014-1.905 0-3.406.671-4.505 2.014-1.098 1.343-1.648 2.999-1.648 4.968zm20.24-12.036h6.787l6.299 16.797 6.347-16.797h6.812l-9.693 24.146h-6.86L62.76 465.88zm27.539 12.036c0-2.327.529-4.451 1.587-6.372 1.058-1.92 2.547-3.446 4.467-4.577 1.92-1.132 4.07-1.697 6.446-1.697 3.613 0 6.53 1.225 8.752 3.674 2.222 2.45 3.333 5.644 3.333 9.583v1.489H96.939c.228 1.562.952 2.856 2.173 3.882 1.22 1.025 2.816 1.538 4.785 1.538 1.075 0 2.226-.216 3.455-.647 1.229-.431 2.21-1.005 2.942-1.721l2.832 4.199c-1.172 1.074-2.641 1.904-4.407 2.49-1.766.586-3.61.879-5.53.879-3.727 0-6.807-1.168-9.24-3.503-2.434-2.336-3.65-5.408-3.65-9.217zm6.591-2.295h11.89a5.617 5.617 0 0 0-.44-1.782 6.351 6.351 0 0 0-1.037-1.636c-.448-.52-1.062-.94-1.843-1.257-.781-.317-1.668-.476-2.661-.476-.944 0-1.79.155-2.54.464-.748.31-1.35.72-1.806 1.233a6.45 6.45 0 0 0-1.074 1.636 5.85 5.85 0 0 0-.489 1.818zm22.583 14.405V465.88h6.348v3.247c.928-1.107 2.088-2.026 3.48-2.759 1.39-.732 2.803-1.098 4.235-1.098v6.201c-.44-.098-1.025-.147-1.758-.147-1.074 0-2.205.273-3.393.818-1.189.546-2.043 1.193-2.564 1.941v15.943h-6.348zm17.994 0V465.88h6.347v3.1c.88-1.025 2.055-1.9 3.528-2.624 1.473-.724 3.113-1.086 4.92-1.086 2.604 0 4.573.68 5.908 2.038 1.334 1.36 2.002 3.252 2.002 5.677v17.04h-6.397v-14.599c0-1.595-.386-2.742-1.16-3.442-.773-.7-1.875-1.05-3.308-1.05-1.155 0-2.205.264-3.149.793a7.66 7.66 0 0 0-2.344 1.99v16.309h-6.347zm28.93 0V465.88h6.348v3.1c.651-.862 1.713-1.696 3.186-2.502a9.694 9.694 0 0 1 4.724-1.208c1.742 0 3.182.378 4.321 1.135 1.14.757 1.93 1.827 2.369 3.21.765-1.171 1.904-2.189 3.418-3.051a9.7 9.7 0 0 1 4.882-1.294c2.263 0 4.012.61 5.25 1.83 1.236 1.222 1.855 3.044 1.855 5.47v17.456h-6.397v-15.26c0-1.187-.293-2.123-.879-2.807-.585-.683-1.497-1.025-2.734-1.025a5.322 5.322 0 0 0-2.869.83c-.887.553-1.59 1.204-2.111 1.953v16.309h-6.421v-15.26c0-2.554-1.197-3.832-3.59-3.832a5.28 5.28 0 0 0-2.843.83c-.887.553-1.608 1.204-2.161 1.953v16.309h-6.348zm41.09-12.11c0-2.327.528-4.451 1.586-6.372 1.058-1.92 2.547-3.446 4.468-4.577 1.92-1.132 4.069-1.697 6.445-1.697 3.613 0 6.53 1.225 8.753 3.674 2.221 2.45 3.332 5.644 3.332 9.583v1.489h-17.944c.228 1.562.952 2.856 2.173 3.882 1.22 1.025 2.815 1.538 4.785 1.538 1.074 0 2.226-.216 3.454-.647 1.23-.431 2.21-1.005 2.942-1.721l2.832 4.199c-1.172 1.074-2.64 1.904-4.406 2.49-1.766.586-3.61.879-5.53.879-3.727 0-6.808-1.168-9.24-3.503-2.434-2.336-3.65-5.408-3.65-9.217zm6.591-2.295h11.89a5.617 5.617 0 0 0-.44-1.782 6.351 6.351 0 0 0-1.037-1.636c-.448-.52-1.062-.94-1.844-1.257-.78-.317-1.668-.476-2.66-.476-.945 0-1.791.155-2.54.464-.749.31-1.35.72-1.807 1.233a6.45 6.45 0 0 0-1.074 1.636 5.85 5.85 0 0 0-.488 1.818zm22.583 14.405V465.88h6.348v3.1c.879-1.025 2.054-1.9 3.527-2.624 1.473-.724 3.113-1.086 4.92-1.086 2.604 0 4.573.68 5.908 2.038 1.335 1.36 2.002 3.252 2.002 5.677v17.04h-6.396v-14.599c0-1.595-.387-2.742-1.16-3.442-.773-.7-1.876-1.05-3.308-1.05-1.156 0-2.206.264-3.15.793a7.66 7.66 0 0 0-2.343 1.99v16.309h-6.348zm26.22-18.604v-5.542h4.005v-6.616h6.347v6.616h4.907v5.542h-4.907v10.864c0 .782.196 1.425.586 1.93.39.504.928.756 1.612.756.455 0 .895-.073 1.318-.22.423-.146.724-.325.903-.537l1.343 4.859c-1.156 1.041-2.922 1.562-5.298 1.562-2.213 0-3.902-.566-5.066-1.697-1.164-1.13-1.745-2.787-1.745-4.968v-12.549h-4.004z" fill="#434242"/>
  <path d="M249.451 291.973s-11.125-8.917-24.483 11.163c-16.343 24.567-13.334 36.994-21.086 62.582-7.752 25.588-35.765 31.08-65.79 44.538C108.067 423.713 95 450.026 95 450.026h112.94s-17.428-24.744 9.609-49.44c27.036-24.696-9.118-27.742 7.419-84.13 6.156-20.992 24.483-24.483 24.483-24.483zM138.5 0L178 332H99z" fill="#CD853F"/>
  <path fill="#CD853F" d="M193.059 155l21.058 177H172zM281.316 94l28.317 238H253zM75.875 136.904c-6.467 2.597-14.02 2.304-20.523-1.45-11.24-6.49-15.091-20.863-8.602-32.102 6.49-11.24 20.862-15.091 32.102-8.602a23.6 23.6 0 0 1 3.923 2.836 23.4 23.4 0 0 0-11.578 10.052c-5.664 9.81-3.45 22.007 4.678 29.266z"/>
  <path d="M285 332c0-23.196-23.505-42-52.5-42S180 308.804 180 332h105z" fill="#CD853F"/>
  <path d="M249.451 291.973s-14.7-5.583-24.483 11.163c-6.88 11.775-13.2 28.658-13.2 28.658l9.71.006s1.841-9.724 3.49-15.344c6.156-20.992 24.483-24.483 24.483-24.483z" fill="#FFF"/>
</svg>
