<svg viewBox="0 0 515 236" xmlns="http://www.w3.org/2000/svg">
  <title>
    Read "I Forgot"
  </title>
  <g transform="translate(0 1)" fill="none" fill-rule="evenodd">
    <path d="M43.8 59.4c-11.6 4.2-20.6 11.5-20.6 22.5 0 6.5 3.9 10.6 10 10.6 5.5 0 9.1-4.1 9.1-8.5 0-4.8-3.1-7.5-7-7.5-2.6 0-3.8 1.1-5.1 1.1-.9 0-1.4-.5-1.4-1.4 0-4.7 5.8-10.9 15.8-14.9l-.8-1.9zm-22.3 0C9.9 63.6.9 70.9.9 81.9c0 6.5 3.9 10.6 10 10.6 5.5 0 9.1-4.1 9.1-8.5 0-4.8-3.1-7.5-7-7.5-2.6 0-3.8 1.1-5.1 1.1-.9 0-1.4-.5-1.4-1.4 0-4.7 5.8-10.9 15.8-14.9l-.8-1.9zM74.7 133l-3.3-.7c-4.8-1-5.5-2.5-4.1-7.7l12.8-47.9c1.4-5.2 2.5-6.7 7.9-7.7l3.7-.7.4-1.6c-6.8.1-13.8.1-20.6.1-6.8 0-13.6 0-20.4-.1l-.4 1.6 3.3.7c4.8 1 5.5 2.5 4.1 7.7l-12.8 47.9c-1.4 5.2-2.5 6.7-7.9 7.7l-3.7.7-.4 1.6c6.8 0 13.9-.1 20.7-.1 6.8 0 13.5.1 20.3.1l.4-1.6zm80.9 0l-3.8-.7c-5.2-1-5.9-2.8-4.6-7.7l6.4-24h.9c5.5 0 7.6 3.2 9.4 18.4h1.4c1.6-6 3.3-12.7 4.9-18.7 1.6-6 3.4-12 5-18h-1.5c-7.4 11.2-13.2 16.4-18.8 16.4h-.8l8-30.1h2.7c9.7 0 15.2 6.6 18.7 25.2h1.7l6.1-27.1H131l-.4 1.6 3.3.7c4.8 1 5.5 2.5 4.1 7.7l-12.8 47.9c-1.4 5.2-2.5 6.7-7.9 7.7l-3.7.7-.4 1.6c7.2 0 14.3-.1 21.4-.1 7.1 0 13.5.1 20.6.1l.4-1.6zm82.7-30.7c0-12.8-9.1-19.2-19.8-19.2-20.3 0-32.3 17.1-32.3 33.8 0 12.8 9 19.2 19.8 19.2 20.3 0 32.3-17.1 32.3-33.8zm-35.6 27.3c0-7.7 5.3-29.6 10.5-39.9 1.7-3.3 3.3-4.8 5.5-4.8 2.4 0 3.1 1.8 3.1 4.7 0 7.7-5.3 29.6-10.5 39.9-1.7 3.3-3.3 4.8-5.5 4.8-2.4 0-3.1-1.8-3.1-4.7zm58.3 5l6.2-20.4c1.9-6.2 4.1-12.4 5.8-16 2.1-4.5 3.8-6.1 5.1-6.1.7 0 1 .4 1 1 0 .7-.2 1.7-.2 2.6 0 5.4 3.5 8.6 8.9 8.6 5.5 0 10-4.3 10-10.9 0-6.3-4-10.3-10.5-10.3-7.5 0-11.6 4.4-15.7 14.3-1.6 3.8-3.2 8.1-4.6 12.5 2.6-8.5 3.8-13.4 3.8-16.9 0-7.4-5.5-9.9-11.6-9.9-8.9 0-12.9 4.6-17.4 17.6l1.7.5c4.2-11.9 7.6-14.3 10.1-14.3 1.5 0 2.4.7 2.4 2.5s-.4 4.2-1.3 7.1l-12.2 38.1c1.1 0 4.2-.1 9.3-.1 5.1 0 8.1.1 9.2.1zm59.4-4.3c-1.9 0-3-1.6-3-5 0-7.5 3-19.4 6.5-28.3 3.6-9 6.2-12.2 9.7-12.2 1.5 0 2.6.7 3.4 1.9l-8.6 30.3c-2.9 10-5.7 13.3-8 13.3zM308.9 159c13.2 0 27.2-4.7 33.5-26.5l10.2-35.2 5.3-14.2h-1l-9.4 4.4c-3.7-2.7-8.9-4.4-15.2-4.4-18.7 0-32.2 16.1-32.2 32.9 0 10.5 6.3 18.2 15.9 18.2 6.1 0 9.9-3.4 13.8-16.8-3 10.6-7.3 20.1-8.7 24.2l-.6 1.8c-3.7 11.2-6.4 13.9-11.6 13.9-2.5 0-3.4-.6-3.4-1.4 0-2.1 7.1-1.6 7.1-9.9 0-4.6-3.5-8.6-9.2-8.6-6.3 0-10.2 4.7-10.2 10.3 0 6.9 5.8 11.3 15.7 11.3zm100.7-56.7c0-12.8-9.1-19.2-19.8-19.2-20.3 0-32.3 17.1-32.3 33.8 0 12.8 9 19.2 19.8 19.2 20.3 0 32.3-17.1 32.3-33.8zM374 129.6c0-7.7 5.3-29.6 10.5-39.9 1.7-3.3 3.3-4.8 5.5-4.8 2.4 0 3.1 1.8 3.1 4.7 0 7.7-5.3 29.6-10.5 39.9-1.7 3.3-3.3 4.8-5.5 4.8-2.4 0-3.1-1.8-3.1-4.7zm56.8 6.5c9.8 0 14.2-4.2 19.9-17.6l-1.6-.5c-5 11.7-9.1 14.2-12.5 14.2-2.6 0-3.9-1.5-3.9-4 0-1.9.5-4.2 1.3-7.1l9.6-32.8 14.6-.8.6-2.9h-14.2l4.3-14.6h-18.6l-4.2 14.1-9.4 1.4-.4 1.6 8.4 1.9-8 27.2c-.9 2.9-1.3 5.6-1.3 8.1 0 7.6 4.7 11.8 15.4 11.8zm63.1-41.6c11.6-4.2 20.6-11.5 20.6-22.5 0-6.5-3.9-10.6-10-10.6-5.5 0-9.1 4.1-9.1 8.5 0 4.8 3.1 7.5 7 7.5 2.6 0 3.8-1.1 5.1-1.1.9 0 1.4.5 1.4 1.4 0 4.7-5.8 10.9-15.8 14.9l.8 1.9zm-22.3 0c11.6-4.2 20.6-11.5 20.6-22.5 0-6.5-3.9-10.6-10-10.6-5.5 0-9.1 4.1-9.1 8.5 0 4.8 3.1 7.5 7 7.5 2.6 0 3.8-1.1 5.1-1.1.9 0 1.4.5 1.4 1.4 0 4.7-5.8 10.9-15.8 14.9l.8 1.9z" fill="#262626"/>
    <circle stroke="#CD853F" stroke-width="2" cx="260.5" cy="6.5" r="6.5"/>
    <circle stroke="#CD853F" stroke-width="2" cx="260.5" cy="227.5" r="6.5"/>
  </g>
</svg>
