<svg viewBox="0 0 918 720" xmlns="http://www.w3.org/2000/svg">
  <g fill="none" fill-rule="evenodd">
    <path d="M128 1.2c.2-.6-.4-.6-.8 0-1 2.2-4 5-9.8 5-9.6 0-17.8-5.6-27.8-5.6-26.6 0-44.8 20.8-44.8 45 0 34.2 49 45.4 49 73 0 17.8-8.4 30-31.2 30-28.6 0-41.8-28.8-34.8-50.6 0-.4-.8-.4-.8 0l-14.2 45.6c-.2.4.6.4.8 0 1.6-3.2 4.4-4.2 9.8-4.2 8.6 0 22.4 10 39.2 10 32.2 0 49.8-23 49.8-46.8C112.4 69 62.2 54 62.2 26c0-15.2 9.6-24.6 27.4-24.6 16.2 0 32.2 17.8 25.6 38.6-.2.4.6.4.8 0l12-38.8zm98.2 3h-66c-.4 0-.6.8-.2.8h18c.8 0 1.2.4 1 .8l-43.8 138.8c0 .4-.6.6-1.4.6h-18c-.4 0-.6.8-.2.8h66c.4 0 .6-.8.2-.8h-18c-.8 0-1.2-.2-1-.6L206.6 5.8c0-.4.6-.8 1.4-.8h18c.4 0 .6-.8.2-.8zm123.4-2.8c.2-.2-.4-.4-.6 0-1.8 3.2-5.8 6.6-13.2 6.6-9.2 0-21.8-7.2-32-7.2C261.2.8 219 48.2 219 96.2c0 33.2 21.4 53.4 50.2 53.4 22 0 42-13.8 58.8-37.8.2-.2-.4-1-.6-.6-17 24.4-37 37.6-58.2 37.6-23 0-28.4-12.2-28.4-25.2 0-23.8 20.8-87 29.4-101 9.8-15.4 15.4-21 33.6-21 21.4 0 36.6 26.8 30.4 46.4-.2.6.6.6.8 0l14.6-46.6zM167.4 194.8c0-.4 0-.6-.4-.6H39.6c-.4 0-.6.2-.8.6l-14.2 45.4c-.2.4.6.4.8 0 7-22.2 30.2-45.2 58.4-45.2h3.8c.8 0 1.2.2 1 .6l-43.8 139c-.2.4-.6.6-1.4.6h-18c-.4 0-.8.8-.2.8H91c.6 0 .8-.8.4-.8h-18c-1 0-1.2-.2-1-.6l43.6-139c.2-.4.6-.6 1.6-.6h3.6c29.6 0 37.8 23.8 30.6 47-.2.4.6.4.6 0l15-47.2zM278.2 225c0-19.2-14.4-30.8-40.8-30.8h-57.8c-.4 0-.6.8-.2.8h18c.8 0 1.2.2 1 .6l-43.6 139c-.2.4-.8.6-1.6.6h-18c-.4 0-.6.8-.2.8h66c.4 0 .6-.8.2-.8h-18c-.8 0-1.2-.2-1-.6l22.8-71.8h18.8c11.4 0 15.8 3.8 15.8 11.8 0 8.4-8 29.4-8 40.4 0 17.8 12.4 24.6 26.2 24.6 8.8 0 13.4-1 19.2-4.2.6-.2.4-.8 0-.6-4 2.2-7.6 2.8-13 2.8-5.8 0-8.8-4.6-8.8-11.4 0-8.4 8.2-28.6 8.2-39.8 0-13.4-8.6-23.2-32-24 30.2-2 46.8-18.6 46.8-37.4zm-21.6-17.2c0 11.2-7.4 33.8-11.8 40.8-5.4 8-10.4 13.4-19.6 13.4H205l21-66.4c0-.4.6-.6 1.4-.6h11.8c12.2 0 17.4 3.6 17.4 12.8zm145 128.2c.4 0 .4-.8 0-.8h-18c-.8 0-1.2-.2-1.2-.6V191.4c0-.6-.6-.8-1.2 0L274.4 327c-6.2 7.6-7.2 8.2-8.6 8.2H249c-.4 0-.4.8 0 .8h40.4c.4 0 .4-.8 0-.8h-19c-1.2 0-1.2-.4 5-8.4l31.6-40h49v47.8c0 .4-.4.6-1.2.6h-16c-.4 0-.4.8 0 .8h62.8zM356 286h-48.4l48.4-61.2V286zm225.4-91.8H542c-.4 0-.6.8-.2.8h18c.8 0 1.2.2 1 .6L529 296.8l-34.4-99c-1-3-2-3.6-3.4-3.6h-45.8c-.4 0-.8.8-.2.8H463c1 0 1.2.2 1.2.6l-43.8 139c-.2.4-.6.6-1.6.6H401c-.6 0-.8.8-.4.8H440c.4 0 .6-.8.2-.8h-18c-.8 0-1.2-.2-1-.6L464.8 196l50.8 142.8c.4.8 1 .4 1.2 0l44.8-143.2c.2-.4.6-.6 1.6-.6H581c.6 0 .8-.8.4-.8zm98.8-3c.2-.6-.4-.6-.8 0-1 2.2-4 5-9.8 5-9.6 0-17.8-5.6-27.8-5.6-26.6 0-44.8 20.8-44.8 45 0 34.2 49 45.4 49 73 0 17.8-8.4 30-31.2 30-28.6 0-41.8-28.8-34.8-50.6 0-.4-.8-.4-.8 0L565 333.6c-.2.4.6.4.8 0 1.6-3.2 4.4-4.2 9.8-4.2 8.6 0 22.4 10 39.2 10 32.2 0 49.8-23 49.8-46.8 0-33.6-50.2-48.6-50.2-76.6 0-15.2 9.6-24.6 27.4-24.6 16.2 0 32.2 17.8 25.6 38.6-.2.4.6.4.8 0l12-38.8zm98.2 3h-66c-.4 0-.6.8-.2.8h18c.8 0 1.2.4 1 .8l-43.8 138.8c0 .4-.6.6-1.4.6h-18c-.4 0-.6.8-.2.8h66c.4 0 .6-.8.2-.8h-18c-.8 0-1.2-.2-1-.6l43.8-138.8c0-.4.6-.8 1.4-.8h18c.4 0 .6-.8.2-.8zm139.4.6c0-.4 0-.6-.4-.6H790c-.4 0-.6.2-.8.6L775 240.2c-.2.4.6.4.8 0 7-22.2 30.2-45.2 58.4-45.2h3.8c.8 0 1.2.2 1 .6l-43.8 139c-.2.4-.6.6-1.4.6h-18c-.4 0-.8.8-.2.8h65.8c.6 0 .8-.8.4-.8h-18c-1 0-1.2-.2-1-.6l43.6-139c.2-.4.6-.6 1.6-.6h3.6c29.6 0 37.8 23.8 30.6 47-.2.4.6.4.6 0l15-47.2zM153 471.6H87c-.4 0-.6.8-.2.8h18c.8 0 1.2.2 1 .6l-11.6 37.2c-3.6 11.4-9 18.6-23.2 18.6-22.8 0-28.4-12.2-28.4-25.2 0-23.8 20.8-87 29.6-101 9.6-15.4 15.2-21 33.6-21 21.2 0 36.6 26.6 30.2 46.4 0 .4.8.4.8 0l14.8-46.6c0-.4-.6-.4-.8 0-1.6 3.2-5.8 6.4-13 6.4-9.4 0-22-7-32-7-42.8 0-85 47.4-85 95.4 0 33.2 21.6 53.4 50.2 53.4 14.2 0 26.8-10.2 36.2-10.2 5.8 0 9 3.4 8 7.4-.2.4 1 .4 1.2 0l17-53.8c0-.4.6-.6 1.4-.6h18c.4 0 .6-.8.2-.8zm110.6 8.8c.2-.4-.6-.4-.8 0-6.4 20.4-30.6 44.8-66.6 44.8h-12.6c-.8 0-1.2-.2-1-.6l43.8-139c.2-.4.6-.6 1.4-.6h18c.4 0 .8-.8.2-.8h-65.8c-.6 0-.8.8-.4.8h18c1 0 1.2.2 1 .6l-43.6 139c-.2.4-.6.6-1.6.6h-18c-.4 0-.6.8-.2.8h113.2c.4 0 .6-.2.8-.6l14.2-45zM416 434.2c0-33.2-21.4-53.4-50-53.4-42.8 0-85 47.4-85 95.4 0 33.2 21.4 53.2 50.2 53.2 42.6 0 84.8-47.2 84.8-95.2zm-21.6-27.4c0 23.6-20.8 87-29.6 101-9.6 15.4-15.4 21-33.6 21-22.8 0-28.4-12.2-28.4-25.2 0-23.8 20.8-87 29.4-101 9.8-15.4 15.4-21 33.8-21 22.8 0 28.4 12 28.4 25.2zm157.4 8.2c0-19.2-14.4-30.8-40.8-30.8h-57.8c-.4 0-.6.8-.2.8h18c.8 0 1.2.2 1 .6l-43.6 139c-.2.4-.8.6-1.6.6h-18c-.4 0-.6.8-.2.8h66c.4 0 .6-.8.2-.8h-18c-.8 0-1.2-.2-1-.6l22.8-71.8h18.8c11.4 0 15.8 3.8 15.8 11.8 0 8.4-8 29.4-8 40.4 0 17.8 12.4 24.6 26.2 24.6 8.8 0 13.4-1 19.2-4.2.6-.2.4-.8 0-.6-4 2.2-7.6 2.8-13 2.8-5.8 0-8.8-4.6-8.8-11.4 0-8.4 8.2-28.6 8.2-39.8 0-13.4-8.6-23.2-32-24 30.2-2 46.8-18.6 46.8-37.4zm-21.6-17.2c0 11.2-7.4 33.8-11.8 40.8-5.4 8-10.4 13.4-19.6 13.4h-20.2l21-66.4c0-.4.6-.6 1.4-.6h11.8c12.2 0 17.4 3.6 17.4 12.8zm123.4-13.6h-66c-.4 0-.6.8-.2.8h18c.8 0 1.2.4 1 .8l-43.8 138.8c0 .4-.6.6-1.4.6h-18c-.4 0-.6.8-.2.8h66c.4 0 .6-.8.2-.8h-18c-.8 0-1.2-.2-1-.6L634 385.8c0-.4.6-.8 1.4-.8h18c.4 0 .6-.8.2-.8zM757.8 526c.4 0 .4-.8 0-.8h-18c-.8 0-1.2-.2-1.2-.6V381.4c0-.6-.6-.8-1.2 0L630.6 517c-6.2 7.6-7.2 8.2-8.6 8.2h-16.8c-.4 0-.4.8 0 .8h40.4c.4 0 .4-.8 0-.8h-19c-1.2 0-1.2-.4 5-8.4l31.6-40h49v47.8c0 .4-.4.6-1.2.6h-16c-.4 0-.4.8 0 .8h62.8zm-45.6-50h-48.4l48.4-61.2V476z" fill="#FFF"/>
    <path d="M210 574.2h-45.6c-.8 0-2.4 1.2-3.8 3.6L95.2 680.4l-3.8-102.6c-.2-2.6-.6-3.6-2-3.6H45.6c-.4 0-.6.8-.2.8h17.8c1 0 1.2.2 1.2.6l-43.8 139c-.2.4-.6.6-1.6.6H1.2c-.4 0-.8.8-.4.8h39.4c.4 0 .6-.8.2-.8h-18c-.8 0-1.2-.2-1-.6L65 576l5.6 142.8c.2.4.8.6 1.2 0L162.6 576 119 714.6c-.2.4-.6.6-1.4.6h-18c-.4 0-.6.8-.2.8h66c.4 0 .6-.8.2-.8h-18c-.8 0-1.2-.2-1-.6l43.6-139c.2-.4.8-.6 1.6-.6h18c.4 0 .6-.8.2-.8zm154.6 0h-39.4c-.4 0-.6.8-.2.8h17.8c1 0 1.2.2 1.2.6L313 674c-8 25.4-23.8 42.8-53.6 42.8-16.8 0-22.8-9-22.8-22 0-7.6 2-17.4 5.4-27.6l28.6-91.6c.2-.4.6-.6 1.6-.6h18c.4 0 .6-.8.2-.8h-66c-.4 0-.6.8-.2.8h18c.8 0 1.2.2 1 .6l-27.6 87.8c-2.4 7.4-3.6 14.4-3.6 20.8 0 21 13.4 35.2 41.4 35.2 34 0 51.8-18 60.6-45.4l31-98.4c0-.4.6-.6 1.4-.6h18c.4 0 .6-.8.2-.8zm150.2 0h-39.4c-.4 0-.6.8-.2.8h18c.8 0 1.2.2 1 .6l-31.8 101.2-34.4-99c-1-3-2-3.6-3.4-3.6h-45.8c-.4 0-.8.8-.2.8h17.8c1 0 1.2.2 1.2.6l-43.8 139c-.2.4-.6.6-1.6.6h-17.8c-.6 0-.8.8-.4.8h39.4c.4 0 .6-.8.2-.8h-18c-.8 0-1.2-.2-1-.6L398.2 576 449 718.8c.4.8 1 .4 1.2 0L495 575.6c.2-.4.6-.6 1.6-.6h17.8c.6 0 .8-.8.4-.8zm130.6 54.6c0-31.6-23.4-54.6-52-54.6h-63.2c-.6 0-.8.8-.4.8h18c1 0 1.2.4 1 .8l-43.6 138.8c-.2.4-.6.6-1.6.6h-18c-.4 0-.6.8-.2.8H554c42.8 0 91.4-41.4 91.4-87.2zm-21.8-26.2c0 22.6-16.6 74.4-25.4 87.8-11.2 17-24.2 24.8-44.2 24.8h-20.4c-.8 0-1.2-.2-1-.6l43.8-138.8c.2-.4.6-.8 1.4-.8h15.6c23.8 0 30.2 12 30.2 27.6zm125.2-28.4h-66c-.4 0-.6.8-.2.8h18c.8 0 1.2.4 1 .8l-43.8 138.8c0 .4-.6.6-1.4.6h-18c-.4 0-.6.8-.2.8h66c.4 0 .6-.8.2-.8h-18c-.8 0-1.2-.2-1-.6l43.8-138.8c0-.4.6-.8 1.4-.8h18c.4 0 .6-.8.2-.8z" fill="#2D2D2D"/>
  </g>
</svg>
